<svg width="512" height="512" xmlns="http://www.w3.org/2000/svg"><path style="fill:#ff4;fill-opacity:1;fill-rule:evenodd;stroke:none;stroke-width:9.66" d="M-59.315-42.835h635.299v597.509H-59.315z"/><g style="display:inline"><path style="fill:#000;fill-opacity:1;stroke:none;stroke-width:.264583" d="M70.135 92.063c6.406 37.459 30.43 33.48 26.143-3.865" transform="scale(4.67677) rotate(9.613 321.304 -82.778)"/><path style="fill:#ff4;fill-opacity:1;stroke:none;stroke-width:.264583" d="M11.944 167.473c6.406 37.459 30.43 33.48 26.143-3.865" transform="scale(3.7084) rotate(9.613 677.275 398.78)"/><path style="fill:#000;fill-opacity:1;stroke:none;stroke-width:.264583" d="M62.572 156.533c6.407 37.458 30.43 33.48 26.143-3.865" transform="rotate(9.613 1539.848 678.784) scale(2.85908)"/><path style="fill:#ff4;fill-opacity:1;stroke:none;stroke-width:.264583" d="M11.944 167.473c6.406 37.459 30.43 33.48 26.143-3.865" transform="scale(2.26708) rotate(9.613 472.62 705.22)"/><path style="fill:#000;fill-opacity:1;stroke:none;stroke-width:.264583" d="M62.572 156.533c6.407 37.458 30.43 33.48 26.143-3.865" transform="rotate(9.613 148.075 1232.996) scale(1.41572)"/><path style="fill:#ff4;fill-opacity:1;stroke:none;stroke-width:.264583" d="M11.944 167.473c6.406 37.459 30.43 33.48 26.143-3.865" transform="rotate(9.613 -83.852 1688.551) scale(1.12258)"/><path style="fill:#000;fill-opacity:1;stroke:none;stroke-width:.264583" d="M106.908 120.177c-3.89-4.098-54.672-3.808-57.586 2.675-4.544 10.11.91 15.279 7.505 23.123-6.076-15.387-5.04-17.713-.162-20.73 7.981-4.937 50.243-5.068 50.243-5.068z" transform="rotate(9.614 2338.886 -225.097) scale(4.67677)"/><g style="stroke:#ff4;stroke-width:8;stroke-dasharray:none;stroke-opacity:1"><path style="fill:#000;stroke:#ff4;stroke-width:8;stroke-dasharray:none;stroke-opacity:1" d="M450.77-5.436c15.895 66.182 17.312 114.991-23.124 162.46 0 0 140.699-86.97 158.054-146.416M146.124-12.882c26.673 45.273 24.248 153.263-11.677 199.043 0 0 208.604-112.485 221.59-202.094"/><path style="fill:#000;stroke:#ff4;stroke-width:8;stroke-dasharray:none;stroke-opacity:1" d="M143.475-14.678c-78.743 92.125 29.413 93.88-15.06 213.744 0 0 187.88-105.517 227.621-214.999" transform="translate(-65.752 -4.612)"/><path style="fill:#000;stroke:#ff4;stroke-width:8;stroke-dasharray:none;stroke-opacity:1" d="M472.426-13.753C457.112 91.968 239.775 170.91 239.775 170.91s69.346-70.006 15.811-198.429" transform="translate(72.998 -.263)"/><path style="fill:#000;stroke:#ff4;stroke-width:8;stroke-dasharray:none;stroke-opacity:1" d="M472.426-13.753C457.112 91.968 262.093 173.024 262.093 173.024s62.198-72.716-.374-195.42M67.167-36.993c21.682 138.132 2.768 248.125-118.84 336.072l-50.863-279.615"/></g><g style="fill:#fff;fill-opacity:1"><path style="fill:#fff;fill-opacity:1;fill-rule:evenodd;stroke:#010100;stroke-width:8.00027;stroke-linecap:butt;stroke-linejoin:miter;stroke-dasharray:none;stroke-opacity:1;paint-order:normal" d="M428.658 486.978s-129.497 3.57-138.674-101.36c59.9 60.952 142.703 54.558 142.703 54.558z" transform="matrix(1.36436 0 0 1.0686 -146.927 -26.472)"/><path style="fill:#fff;fill-opacity:1;fill-rule:evenodd;stroke:#010100;stroke-width:4.07224;stroke-linecap:butt;stroke-linejoin:miter;stroke-dasharray:none;stroke-opacity:1;paint-order:normal" d="m429.8 442.517-24.497 36.898-10.999-38.308-32.024 30.203-7.306-38.474-24.846 20.85-8.192-36.138-16.071 15.566" transform="matrix(1.36436 0 0 1.0686 -146.927 -26.472)"/></g></g></svg>